<?xml version="1.0" standalone="no"?>
<!DOCTYPE svg PUBLIC "-//W3C//DTD SVG 20010904//EN"
 "http://www.w3.org/TR/2001/REC-SVG-20010904/DTD/svg10.dtd">
<svg version="1.0" xmlns="http://www.w3.org/2000/svg"
 width="151.000000pt" height="151.000000pt" viewBox="0 0 151.000000 151.000000"
 preserveAspectRatio="xMidYMid meet">
<metadata>
Created by potrace 1.14, written by Peter Selinger 2001-2017
</metadata>
<g transform="translate(0.000000,151.000000) scale(0.100000,-0.100000)"
fill="#000000" stroke="none">
<path d="M270 1361 l0 -121 116 0 116 0 -116 -116 -116 -116 2 -486 3 -487
115 0 115 0 2 605 2 604 -120 119 -119 119 0 -121z"/>
<path d="M658 1242 l-88 -3 0 -599 c0 -593 0 -600 20 -601 11 0 56 -1 100 -1
44 0 88 1 98 1 16 1 18 18 17 249 l0 247 238 0 c219 0 237 1 238 17 0 10 1 47
1 83 0 36 -1 71 -1 79 -1 11 -42 14 -228 14 -126 0 -233 1 -238 1 -12 1 -15
293 -4 301 4 3 134 5 288 5 l281 0 0 102 0 103 -27 1 c-107 2 -625 3 -695 1z"/>
</g>
</svg>
