<svg xmlns="http://www.w3.org/2000/svg" xmlns:xlink="http://www.w3.org/1999/xlink" viewBox="0 0 656.82 207.8"><defs><style>.cls-1{fill:#fff;}.cls-2{fill:url(#linear-gradient);}.cls-3{fill:#d6e327;}</style><linearGradient id="linear-gradient" x1="48.14" y1="181.96" x2="549.11" y2="181.96" gradientUnits="userSpaceOnUse"><stop offset="0" stop-color="#39ba4c"/><stop offset="1" stop-color="#b6bc21"/></linearGradient></defs><g id="Layer_2" data-name="Layer 2"><g id="Layer_1-2" data-name="Layer 1"><path class="cls-1" d="M0,115V18.71H18.71V115Z"/><path class="cls-1" d="M65.22,53.16V115H46.51V18.71H61.56l49.63,63.46V18.85h18.58V115H114.31Z"/><path class="cls-1" d="M215.05,43.94a20.34,20.34,0,0,0-3.45-2.51,53,53,0,0,0-6.11-3.19,47.83,47.83,0,0,0-7.79-2.71,34.25,34.25,0,0,0-8.54-1.09q-7.6,0-11.46,2.77a9.25,9.25,0,0,0-3.87,8,8.12,8.12,0,0,0,2.44,6.2,19.74,19.74,0,0,0,7.33,3.92q4.88,1.62,12.2,3.5a85.76,85.76,0,0,1,16.47,5.6A26.67,26.67,0,0,1,223,73.1q3.72,5.33,3.73,14.23a27.43,27.43,0,0,1-2.85,13,24.58,24.58,0,0,1-7.8,8.83,33.71,33.71,0,0,1-11.39,5,58.26,58.26,0,0,1-13.63,1.55,70.14,70.14,0,0,1-14.37-1.5,72.82,72.82,0,0,1-13.76-4.27,67.84,67.84,0,0,1-12.27-6.71l8.27-16.14a26.23,26.23,0,0,0,4.34,3.19,58,58,0,0,0,7.59,3.93,63.09,63.09,0,0,0,9.76,3.33,43.19,43.19,0,0,0,10.71,1.35q7.74,0,11.53-2.48a8.17,8.17,0,0,0,3.8-7.31,8.33,8.33,0,0,0-3.05-6.81A26.92,26.92,0,0,0,195,77.92q-5.56-1.82-13.16-3.84a75,75,0,0,1-15.25-5.81,23.8,23.8,0,0,1-9.09-8,22.18,22.18,0,0,1-3.05-12.09q0-9.85,4.75-16.54a29.6,29.6,0,0,1,12.74-10.13A44.45,44.45,0,0,1,189.7,18a52.92,52.92,0,0,1,12.81,1.49,62.4,62.4,0,0,1,11.32,3.93,67.27,67.27,0,0,1,9.5,5.29Z"/><path class="cls-1" d="M248.54,115V18.71h40.82a27.86,27.86,0,0,1,12.27,2.72,30.57,30.57,0,0,1,9.7,7.32,34.57,34.57,0,0,1,6.3,10.3,31.72,31.72,0,0,1,2.24,11.67,34.28,34.28,0,0,1-3.66,15.39,31.12,31.12,0,0,1-10.37,12,27,27,0,0,1-15.67,4.61H267.26V115Zm18.72-48.68H289a10.59,10.59,0,0,0,6.24-1.9,12.61,12.61,0,0,0,4.27-5.49,20.43,20.43,0,0,0,1.56-8.2,17.93,17.93,0,0,0-1.83-8.48A13.55,13.55,0,0,0,294.44,37a11.61,11.61,0,0,0-6.3-1.83H267.26Z"/><path class="cls-1" d="M340.74,37.43V115h18.72V18.72Z"/><path class="cls-1" d="M387.26,115V18.71H430a27.61,27.61,0,0,1,12.14,2.72,31.27,31.27,0,0,1,9.76,7.32,33.79,33.79,0,0,1,6.37,10.3,31.72,31.72,0,0,1,2.24,11.67,32.76,32.76,0,0,1-2.1,11.66,30.17,30.17,0,0,1-6,9.83,27.09,27.09,0,0,1-9.22,6.57l22,36.21H444.48l-19.8-32.27H406V115ZM406,66.31h23.46a9.92,9.92,0,0,0,6.24-2.1A14.94,14.94,0,0,0,440,58.58a18.6,18.6,0,0,0,1.62-7.86,16.6,16.6,0,0,0-1.9-8A15.82,15.82,0,0,0,435,37.16a10.49,10.49,0,0,0-6.24-2H406Z"/><path class="cls-1" d="M552,98.58V115H485.16V18.71h65.63V35.12H503.87V58.31h40.41V73.5H503.87V98.58Z"/><path class="cls-1" d="M574.38,115V18.71h35q15.74,0,26.31,6.44a40.93,40.93,0,0,1,15.87,17.36,54.88,54.88,0,0,1,5.28,24.21q0,14.64-5.83,25.49A41.28,41.28,0,0,1,634.52,109q-10.65,6-25.16,6ZM638,66.72a38.08,38.08,0,0,0-3.39-16.48,26,26,0,0,0-9.77-11.12,28.57,28.57,0,0,0-15.46-4H593.09V98.58h16.27q9.36,0,15.67-4.2A26.94,26.94,0,0,0,634.65,83,38.28,38.28,0,0,0,638,66.72Z"/><path class="cls-2" d="M48.14,207.44v-51H82.37v8.68H58V178.3H78.28v8.11H58v21ZM157,198.76v8.68H121.63v-51h34.74v8.68H131.53v12.28h21.39v8H131.53v13.28Zm50-24v32.73h-9.91v-51h8l26.27,33.59V156.55h9.83v50.89H233ZM281,181.53a25.95,25.95,0,0,1,6.64-17.37,24.12,24.12,0,0,1,18.48-8,23.11,23.11,0,0,1,12.16,3.09,19.24,19.24,0,0,1,7.58,8l-7.54,5.24A11.94,11.94,0,0,0,315,168a13.38,13.38,0,0,0-4.49-2.36,16.12,16.12,0,0,0-4.63-.72,13.34,13.34,0,0,0-6.5,1.51,14.11,14.11,0,0,0-4.59,3.94,17.78,17.78,0,0,0-2.76,5.46,20.26,20.26,0,0,0-.94,6.1,19.49,19.49,0,0,0,1.08,6.42,17.9,17.9,0,0,0,3,5.53,14.67,14.67,0,0,0,4.74,3.8A13.12,13.12,0,0,0,306,199a15.28,15.28,0,0,0,4.74-.79,13.48,13.48,0,0,0,4.52-2.51,12.67,12.67,0,0,0,3.38-4.52l8,4.74a15.82,15.82,0,0,1-5,6.46,24.63,24.63,0,0,1-7.6,4,27.23,27.23,0,0,1-8.36,1.36,21.85,21.85,0,0,1-9.94-2.26,25.62,25.62,0,0,1-7.79-6,28.41,28.41,0,0,1-5.13-8.47A26,26,0,0,1,281,181.53Zm84.62,25.91v-51h9.9v51Zm62.73-32.73v32.73h-9.91v-51h8l26.27,33.59V156.55h9.83v50.89h-8.18Zm98.32,33.09a22.54,22.54,0,0,1-9.4-2,23.67,23.67,0,0,1-7.71-5.56,26.23,26.23,0,0,1-5.21-8.29,27.71,27.71,0,0,1-1.86-10.3,25.7,25.7,0,0,1,1.9-9.87,26.63,26.63,0,0,1,5.24-8.18,23.59,23.59,0,0,1,7.86-5.53,26.11,26.11,0,0,1,22.14,1,19.56,19.56,0,0,1,7.72,8.11L540,172.7a13.24,13.24,0,0,0-5.38-5.81,15.09,15.09,0,0,0-7.61-2,12.89,12.89,0,0,0-5.92,1.36,14.26,14.26,0,0,0-4.63,3.73,16.71,16.71,0,0,0-2.94,5.46,21,21,0,0,0-1,6.53,19.59,19.59,0,0,0,1.12,6.75,16.89,16.89,0,0,0,3.15,5.42,14.74,14.74,0,0,0,4.78,3.62,13.86,13.86,0,0,0,6,1.29,14.82,14.82,0,0,0,7.47-2,23.43,23.43,0,0,0,6.6-5.88V201Q535.25,207.81,526.71,207.8Zm14.21-19.31H530.66v-7.25h18.45v26.2h-8.19Z"/><polygon class="cls-3" points="359.46 18.72 340.75 0 340.75 18.72 359.46 18.72"/></g></g></svg>