<?xml version="1.0" ?>

<!DOCTYPE svg  PUBLIC '-//W3C//DTD SVG 1.1//EN'  'http://www.w3.org/Graphics/SVG/1.1/DTD/svg11.dtd'>

<!-- Uploaded to: SVG Repo, www.svgrepo.com, Generator: SVG Repo Mixer Tools -->
<svg fill="#000000" width="800px" height="800px" viewBox="0 0 250 250" style="fill-rule:evenodd;clip-rule:evenodd;stroke-linecap:round;stroke-linejoin:round;stroke-miterlimit:1.5;" version="1.1" xml:space="preserve" xmlns="http://www.w3.org/2000/svg" xmlns:serif="http://www.serif.com/" xmlns:xlink="http://www.w3.org/1999/xlink">

<g transform="matrix(2.22,0,0,0.567142,-292.5,86.0502)">

<rect height="44.081" style="fill:#73b21a;stroke:black;stroke-width:4.63px;" width="125" x="125" y="200.919"/>

</g>

<g transform="matrix(2.22,0,0,0.567142,-292.5,-73.9498)">

<rect height="44.081" style="fill:#73b21a;stroke:black;stroke-width:4.63px;" width="125" x="125" y="200.919"/>

</g>

<g transform="matrix(0.974378,0,0,1,1.13007,0)">

<rect height="25" style="fill:rgb(191,191,191);" width="8.21" x="40" y="40"/>

</g>

<g transform="matrix(0.974378,0,0,1,51.4634,7.10543e-15)">

<rect height="25" style="fill:rgb(191,191,191);" width="8.21" x="40" y="40"/>

</g>

<g transform="matrix(0.974378,0,0,1,101.13,-7.10543e-15)">

<rect height="25" style="fill:rgb(191,191,191);" width="8.21" x="40" y="40"/>

</g>

<g transform="matrix(0.974378,0,0,1,151.13,-7.10543e-15)">

<rect height="25" style="fill:rgb(191,191,191);" width="8.21" x="40" y="40"/>

</g>

<g transform="matrix(0.974378,0,0,1,201.025,7.10543e-15)">

<rect height="25" style="fill:rgb(191,191,191);" width="8.21" x="40" y="40"/>

</g>

<g transform="matrix(0.974378,0,0,1,1.13007,160)">

<rect height="25" style="fill:rgb(191,191,191);" width="8.21" x="40" y="40"/>

</g>

<g transform="matrix(0.974378,0,0,1,51.4634,160)">

<rect height="25" style="fill:rgb(191,191,191);" width="8.21" x="40" y="40"/>

</g>

<g transform="matrix(0.974378,0,0,1,100.797,160)">

<rect height="25" style="fill:rgb(191,191,191);" width="8.21" x="40" y="40"/>

</g>

<g transform="matrix(0.974378,0,0,1,151.13,160)">

<rect height="25" style="fill:rgb(191,191,191);" width="8.21" x="40" y="40"/>

</g>

<g transform="matrix(0.974378,0,0,1,201.025,160)">

<rect height="25" style="fill:rgb(191,191,191);" width="8.21" x="40" y="40"/>

</g>

<g transform="matrix(2.22,0,0,0.567142,-292.5,86.0502)">

<rect height="44.081" style="fill:none;stroke:black;stroke-width:4.63px;" width="125" x="125" y="200.919"/>

</g>

<g transform="matrix(2.22,0,0,0.567142,-292.5,-73.9498)">

<rect height="44.081" style="fill:none;stroke:black;stroke-width:4.63px;" width="125" x="125" y="200.919"/>

</g>

<g transform="matrix(1,0,0,1,14.4563,-0.669344)">

<path d="M45.544,26.494L60.544,5.669L75.544,26.494L75.544,245.669L45.544,245.669L45.544,26.494Z" style="fill:white;stroke:black;stroke-width:7.5px;"/>

</g>

<g transform="matrix(1,0,0,1,64.4563,-0.669344)">

<path d="M45.544,26.494L60.544,5.669L75.544,26.494L75.544,245.669L45.544,245.669L45.544,26.494Z" style="fill:white;stroke:black;stroke-width:7.5px;"/>

</g>

<g transform="matrix(1,0,0,1,114.456,-0.669344)">

<path d="M45.544,26.494L60.544,5.669L75.544,26.494L75.544,245.669L45.544,245.669L45.544,26.494Z" style="fill:white;stroke:black;stroke-width:7.5px;"/>

</g>

<g transform="matrix(1,0,0,1,164.456,-0.669344)">

<path d="M45.544,26.494L60.544,5.669L75.544,26.494L75.544,245.669L45.544,245.669L45.544,26.494Z" style="fill:white;stroke:black;stroke-width:7.5px;"/>

</g>

<g transform="matrix(1,0,0,1,-35.5437,-0.669344)">

<path d="M45.544,26.494L60.544,5.669L75.544,26.494L75.544,245.669L45.544,245.669L45.544,26.494Z" style="fill:white;stroke:black;stroke-width:7.5px;"/>

</g>

</svg>