<svg xmlns="http://www.w3.org/2000/svg" version="1.1" xmlns:xlink="http://www.w3.org/1999/xlink" xmlns:svgjs="http://svgjs.com/svgjs" width="512" height="512" x="0" y="0" viewBox="0 0 512 512" style="enable-background:new 0 0 512 512" xml:space="preserve" class=""><g><path d="m256 143.75 56.277 29.59-10.75-62.668 45.559-44.399-62.945-9.14L256 0l-28.14 57.133-62.946 9.14 45.559 44.399-10.75 62.668zM446.137 159.129l-28.14-57.024-28.142 57.024-62.914 9.14 45.528 44.387-10.75 62.68 56.277-29.59 56.309 29.59-10.782-62.68L512 168.27zM48.477 212.656l-10.782 62.68 56.309-29.59 56.277 29.59-10.75-62.68 45.528-44.386-62.914-9.141-28.141-57.024-28.14 57.024L0 168.269zM331 286c0-41.352-33.648-75-75-75s-75 33.648-75 75 33.648 75 75 75 75-33.648 75-75zM151 466v46h210v-46c0-57.89-47.11-105-105-105s-105 47.11-105 105zM481 496c0-41.352-33.648-75-75-75-7.758 0-15.094 1.523-22.137 3.719C388.11 437.813 391 451.512 391 466v46h90zm0 0" fill="#ffffff" data-original="#000000" class=""></path><path d="M466 361c0-33.09-26.91-60-60-60s-60 26.91-60 60c0 1.91.387 3.715.563 5.578 14.792 13.485 26.722 29.942 34.386 48.766C388.598 418.887 397.031 421 406 421c33.09 0 60-26.91 60-60zM165.438 366.578c.175-1.863.562-3.668.562-5.578 0-33.09-26.91-60-60-60s-60 26.91-60 60 26.91 60 60 60c8.969 0 17.402-2.113 25.05-5.652 7.665-18.828 19.595-35.286 34.387-48.77zM31 496v16h90v-46c0-14.488 2.89-28.188 7.137-41.281C121.094 422.523 113.757 421 106 421c-41.352 0-75 33.648-75 75zm0 0" fill="#ffffff" data-original="#000000" class=""></path></g></svg>