<svg xmlns="http://www.w3.org/2000/svg" version="1.1" xmlns:xlink="http://www.w3.org/1999/xlink" xmlns:svgjs="http://svgjs.com/svgjs" width="512" height="512" x="0" y="0" viewBox="0 0 32 32" style="enable-background:new 0 0 512 512" xml:space="preserve"><g><g data-name="26-Guranteed"><path d="M27 6c-5.56 0-10.33-3.74-10.38-3.78a1 1 0 0 0-1.24 0C15.33 2.26 10.58 6 5 6a1 1 0 0 0-1 1v9c0 6.71 2.71 10 11.59 13.91a1 1 0 0 0 .82 0C25.29 26 28 22.71 28 16V7a1 1 0 0 0-1-1zM16 24a8 8 0 1 1 8-8 8 8 0 0 1-8 8z" fill="#ffffff" data-original="#000000"></path><path d="M18.29 13.29 15 16.59l-1.29-1.3a1 1 0 0 0-1.42 1.42l2 2a1 1 0 0 0 1.42 0l4-4a1 1 0 0 0-1.42-1.42z" fill="#ffffff" data-original="#000000"></path></g></g></svg>