<svg xmlns="http://www.w3.org/2000/svg" version="1.1" xmlns:xlink="http://www.w3.org/1999/xlink" xmlns:svgjs="http://svgjs.com/svgjs" width="512" height="512" x="0" y="0" viewBox="0 0 512 512" style="enable-background:new 0 0 512 512" xml:space="preserve"><g><path d="M512 150v332H359.43c-41.925 0-63.974 28.428-66.22 30h-74.42c-2.278-1.594-24.012-30-66.22-30H0V120h30v332h122.7c46.882 0 72.978 26.451 79.48 30h47.64c6.499-3.548 32.602-30 79.48-30H482V150z" fill="#ffffff" data-original="#000000"></path><path d="M210.93 433.97C192.71 426.09 173 422 152.7 422H60V60h30v302h45c40.88 0 74.32 32.01 75.93 71.97zM359.3 90c-31.774 0-62.377 8.324-89.354 24.241A204.013 204.013 0 0 1 271 135v316.371a179.338 179.338 0 0 1 6.923-4.79C324.239 415.691 356.152 422 452 422V90z" fill="#ffffff" data-original="#000000"></path><path d="M241 437c0-57.897-47.551-105-106-105h-15V0c74.991 0 121 60.561 121 135z" fill="#ffffff" data-original="#000000"></path></g></svg>