<svg width="650" height="933" viewBox="0 0 650 933" fill="none" xmlns="http://www.w3.org/2000/svg">
<g opacity="0.3">
<path d="M-650.173 274.752C-545.661 214.255 -512.933 278.337 -408.422 217.84C-303.91 157.342 -336.638 93.261 -232.157 32.7813C-127.675 -27.6984 -94.9172 36.3657 9.59432 -24.1315C114.106 -84.6286 81.3779 -148.71 185.889 -209.207C290.401 -269.704 323.129 -205.623 427.67 -266.137C532.212 -326.652 499.454 -390.716 603.966 -451.213" stroke="#73b21a" stroke-miterlimit="10"/>
<path d="M-388.217 787.665C-283.705 727.168 -250.977 791.249 -146.466 730.752C-41.9541 670.255 -74.682 606.174 29.7995 545.694C134.281 485.214 167.039 549.278 271.55 488.781C376.062 428.284 343.334 364.203 447.846 303.706C552.357 243.208 585.085 307.29 689.627 246.775C794.168 186.261 761.41 122.197 865.922 61.6997" stroke="#73b21a" stroke-miterlimit="10"/>
<path d="M-519.194 531.209C-414.683 470.711 -381.955 534.793 -277.443 474.296C-172.932 413.799 -205.66 349.717 -101.178 289.238C3.30314 228.758 36.0611 292.822 140.573 232.325C245.084 171.828 212.356 107.746 316.868 47.2491C421.379 -13.248 454.107 50.8335 558.649 -9.68107C663.19 -70.1956 630.432 -134.26 734.944 -194.757" stroke="#73b21a" stroke-miterlimit="10"/>
<path d="M-257.239 1044.12C-152.727 983.626 -119.933 1047.84 -15.4213 987.341C89.0902 926.844 56.2958 862.632 160.777 802.152C265.259 741.672 298.083 805.867 402.595 745.37C507.106 684.873 474.312 620.661 578.823 560.164C683.335 499.667 716.129 563.878 820.671 503.364C925.212 442.849 892.388 378.655 996.899 318.158" stroke="#73b21a" stroke-miterlimit="10"/>
<path d="M-77.1021 1396.83C27.4095 1336.33 60.1373 1400.42 164.649 1339.92C269.16 1279.42 236.433 1215.34 340.914 1154.86C445.395 1094.38 478.153 1158.44 582.665 1097.95C687.176 1037.45 654.448 973.368 758.96 912.871C863.472 852.374 896.199 916.456 1000.74 855.941C1105.28 795.427 1072.52 731.362 1177.04 670.865" stroke="#73b21a" stroke-miterlimit="10"/>
<path d="M-584.717 402.916C-480.205 342.419 -447.411 406.63 -342.899 346.133C-238.388 285.636 -271.182 221.424 -166.701 160.945C-62.2191 100.465 -29.3946 164.659 75.1169 104.162C179.628 43.665 146.834 -20.5467 251.346 -81.0438C355.857 -141.541 388.651 -77.3292 493.193 -137.844C597.735 -198.358 564.91 -262.553 669.422 -323.05" stroke="#73b21a" stroke-miterlimit="10"/>
<path d="M-322.694 915.959C-218.183 855.462 -185.455 919.543 -80.9434 859.046C23.5681 798.549 -9.15976 734.468 95.3217 673.988C199.803 613.508 232.561 677.572 337.073 617.075C441.584 556.578 408.856 492.497 513.368 431.999C617.879 371.502 650.607 435.584 755.149 375.069C859.69 314.555 826.932 250.491 931.444 189.994" stroke="#73b21a" stroke-miterlimit="10"/>
<path d="M-453.673 659.502C-349.161 599.005 -316.433 663.086 -211.922 602.589C-107.41 542.092 -140.138 478.011 -35.6566 417.531C68.8249 357.051 101.583 421.115 206.094 360.618C310.606 300.121 277.878 236.04 382.389 175.543C486.901 115.045 519.629 179.127 624.17 118.612C728.712 58.0979 695.954 -5.96616 800.466 -66.4633" stroke="#73b21a" stroke-miterlimit="10"/>
<path d="M-191.716 1172.42C-87.2045 1111.92 -54.4767 1176 50.0348 1115.5C154.546 1055.01 121.819 990.924 226.3 930.444C330.781 869.965 363.539 934.029 468.051 873.532C572.562 813.034 539.834 748.953 644.346 688.456C748.858 627.959 781.585 692.04 886.127 631.526C990.669 571.011 957.911 506.947 1062.42 446.45" stroke="#73b21a" stroke-miterlimit="10"/>
<path d="M-13.3271 1517.62C91.7094 1458.16 123.846 1522.51 228.882 1463.05C333.919 1403.59 301.782 1339.25 406.789 1279.81C511.795 1220.36 543.962 1284.69 648.998 1225.23C754.035 1165.78 721.898 1101.43 826.935 1041.97C931.971 982.517 964.108 1046.86 1069.17 987.387C1174.24 927.912 1142.07 863.585 1247.11 804.127" stroke="#73b21a" stroke-miterlimit="10"/>
<path d="M-617.445 338.834C-512.934 278.337 -480.206 342.418 -375.694 281.921C-271.183 221.424 -303.911 157.343 -199.429 96.8629C-94.9478 36.3832 -62.1899 100.447 42.3216 39.9502C146.833 -20.5469 114.105 -84.6284 218.617 -145.125C323.128 -205.623 355.856 -141.541 460.398 -202.056C564.939 -262.57 532.181 -326.634 636.693 -387.131" stroke="#73b21a" stroke-miterlimit="10"/>
<path d="M-355.488 851.747C-250.977 791.25 -218.182 855.461 -113.671 794.964C-9.15932 734.467 -41.9537 670.255 62.5277 609.776C167.009 549.296 199.834 613.49 304.345 552.993C408.857 492.496 376.062 428.284 480.574 367.787C585.085 307.29 617.88 371.502 722.421 310.987C826.963 250.473 794.138 186.279 898.65 125.781" stroke="#73b21a" stroke-miterlimit="10"/>
<path d="M-486.467 595.29C-381.955 534.793 -349.161 599.005 -244.649 538.508C-140.138 478.011 -172.932 413.799 -68.4505 353.319C36.0309 292.839 68.8554 357.034 173.367 296.537C277.878 236.04 245.084 171.828 349.596 111.331C454.107 50.8336 486.901 115.045 591.443 54.5308C695.985 -5.9837 663.16 -70.1781 767.672 -130.675" stroke="#73b21a" stroke-miterlimit="10"/>
<path d="M-224.444 1108.33C-119.933 1047.84 -87.2049 1111.92 17.3066 1051.42C121.818 990.923 89.0902 926.841 193.572 866.362C298.053 805.882 330.811 869.946 435.323 809.449C539.834 748.952 507.106 684.87 611.618 624.373C716.129 563.876 748.857 627.958 853.399 567.443C957.94 506.928 925.182 442.864 1029.69 382.367" stroke="#73b21a" stroke-miterlimit="10"/>
<path d="M-44.3738 1460.91C60.1377 1400.42 92.8656 1464.5 197.377 1404C301.889 1343.5 269.161 1279.42 373.642 1218.94C478.124 1158.46 510.882 1222.53 615.393 1162.03C719.905 1101.53 687.177 1037.45 791.688 976.953C896.2 916.456 928.928 980.537 1033.47 920.023C1138.01 859.508 1105.25 795.444 1209.76 734.947" stroke="#73b21a" stroke-miterlimit="10"/>
<path d="M-551.922 467.128C-447.411 406.631 -414.683 470.712 -310.171 410.215C-205.66 349.718 -238.388 285.636 -133.906 225.157C-29.4249 164.677 3.33305 228.741 107.845 168.244C212.356 107.747 179.628 43.6653 284.14 -16.8318C388.651 -77.3289 421.379 -13.2474 525.921 -73.7619C630.462 -134.276 597.704 -198.341 702.216 -258.838" stroke="#73b21a" stroke-miterlimit="10"/>
<path d="M-289.966 980.041C-185.455 919.543 -152.727 983.625 -48.2154 923.128C56.2961 862.631 23.5683 798.549 128.05 738.069C232.531 677.59 265.289 741.654 369.801 681.157C474.312 620.66 441.584 556.578 546.096 496.081C650.607 435.584 683.335 499.665 787.877 439.151C892.418 378.636 859.66 314.572 964.172 254.075" stroke="#73b21a" stroke-miterlimit="10"/>
<path d="M-109.83 1332.75C-5.31856 1272.25 27.4093 1336.33 131.921 1275.84C236.432 1215.34 203.704 1151.26 308.186 1090.78C412.667 1030.3 445.425 1094.36 549.937 1033.87C654.448 973.37 621.72 909.288 726.232 848.791C830.743 788.294 863.471 852.376 968.013 791.861C1072.55 731.346 1039.8 667.282 1144.31 606.785" stroke="#73b21a" stroke-miterlimit="10"/>
<path d="M-420.944 723.583C-316.433 663.086 -283.705 727.168 -179.193 666.671C-74.6817 606.173 -107.41 542.092 -2.92807 481.612C101.553 421.132 134.311 485.197 238.823 424.699C343.334 364.202 310.606 300.121 415.118 239.624C519.629 179.127 552.357 243.208 656.899 182.694C761.441 122.179 728.683 58.115 833.194 -2.3821" stroke="#73b21a" stroke-miterlimit="10"/>
<path d="M-158.989 1236.5C-54.477 1176 -21.7491 1240.08 82.7624 1179.58C187.274 1119.09 154.546 1055.01 259.027 994.526C363.509 934.046 396.267 998.11 500.778 937.613C605.29 877.116 572.562 813.035 677.074 752.537C781.585 692.04 814.313 756.122 918.855 695.607C1023.4 635.093 990.638 571.029 1095.15 510.532" stroke="#73b21a" stroke-miterlimit="10"/>
<path d="M21.1477 1589.21C125.659 1528.71 158.357 1592.73 262.869 1532.24C367.38 1471.74 334.682 1407.71 439.164 1347.24C543.645 1286.76 576.373 1350.76 680.885 1290.26C785.396 1229.77 752.698 1165.74 857.21 1105.25C961.721 1044.75 994.419 1108.77 1098.96 1048.26C1203.5 987.744 1170.77 923.738 1275.29 863.241" stroke="#73b21a" stroke-miterlimit="10"/>
<path d="M-633.808 306.793C-529.297 246.296 -496.569 310.378 -392.057 249.88C-287.546 189.383 -320.274 125.302 -215.792 64.8221C-111.311 4.3424 -78.5529 68.4065 25.9586 7.90938C130.47 -52.5877 97.7422 -116.669 202.254 -177.166C306.765 -237.663 339.493 -173.582 444.035 -234.096C548.576 -294.611 515.818 -358.675 620.33 -419.172" stroke="#73b21a" stroke-miterlimit="10"/>
<path d="M-371.853 819.705C-267.341 759.208 -234.547 823.42 -130.035 762.923C-25.5236 702.426 -58.318 638.214 46.1635 577.734C150.645 517.255 183.469 581.449 287.981 520.952C392.492 460.455 359.698 396.243 464.21 335.746C568.721 275.249 601.515 339.46 706.057 278.946C810.599 218.431 777.774 154.237 882.286 93.74" stroke="#73b21a" stroke-miterlimit="10"/>
<path d="M-502.831 563.249C-398.319 502.752 -365.591 566.834 -261.08 506.337C-156.568 445.84 -189.296 381.758 -84.8148 321.278C19.6667 260.799 52.4246 324.863 156.936 264.366C261.448 203.869 228.72 139.787 333.231 79.2899C437.743 18.7928 470.471 82.8743 575.012 22.3598C679.554 -38.1548 646.796 -102.219 751.307 -162.716" stroke="#73b21a" stroke-miterlimit="10"/>
<path d="M-240.875 1076.16C-136.363 1015.67 -103.569 1079.88 0.942931 1019.38C105.454 958.884 72.6601 894.672 177.142 834.192C281.623 773.712 314.447 837.907 418.959 777.41C523.47 716.913 490.676 652.701 595.188 592.204C699.699 531.707 732.494 595.918 837.035 535.404C941.577 474.889 908.752 410.695 1013.26 350.198" stroke="#73b21a" stroke-miterlimit="10"/>
<path d="M-60.7383 1428.87C43.7732 1368.38 76.5011 1432.46 181.013 1371.96C285.524 1311.46 252.796 1247.38 357.278 1186.9C461.759 1126.42 494.517 1190.49 599.029 1129.99C703.54 1069.49 670.812 1005.41 775.324 944.913C879.835 884.416 912.563 948.497 1017.1 887.983C1121.65 827.468 1088.89 763.404 1193.4 702.907" stroke="#73b21a" stroke-miterlimit="10"/>
<path d="M-568.286 435.087C-463.775 374.59 -431.047 438.671 -326.535 378.174C-222.024 317.677 -254.752 253.596 -150.27 193.116C-45.7887 132.636 -13.0307 196.7 91.4808 136.203C195.992 75.706 163.264 11.6245 267.776 -48.8726C372.287 -109.37 405.015 -45.2883 509.557 -105.803C614.099 -166.317 581.341 -230.381 685.852 -290.878" stroke="#73b21a" stroke-miterlimit="10"/>
<path d="M-306.33 947.999C-201.819 887.502 -169.091 951.583 -64.5794 891.086C39.9321 830.589 7.20425 766.508 111.686 706.028C216.167 645.548 248.925 709.612 353.437 649.115C457.948 588.618 425.22 524.537 529.732 464.039C634.243 403.542 666.971 467.624 771.513 407.109C876.054 346.595 843.296 282.531 947.808 222.034" stroke="#73b21a" stroke-miterlimit="10"/>
<path d="M-126.26 1300.58C-21.7487 1240.08 11.0457 1304.29 115.557 1243.8C220.069 1183.3 187.274 1119.09 291.756 1058.61C396.237 998.128 429.062 1062.32 533.573 1001.83C638.085 941.328 605.29 877.116 709.802 816.619C814.313 756.122 847.108 820.334 951.649 759.819C1056.19 699.305 1023.37 635.11 1127.88 574.613" stroke="#73b21a" stroke-miterlimit="10"/>
<path d="M-437.308 691.543C-332.797 631.046 -300.069 695.128 -195.557 634.63C-91.0457 574.133 -123.774 510.052 -19.2921 449.572C85.1894 389.092 117.947 453.157 222.459 392.659C326.97 332.162 294.242 268.081 398.754 207.584C503.265 147.087 535.993 211.168 640.535 150.654C745.077 90.1391 712.319 26.075 816.83 -34.4221" stroke="#73b21a" stroke-miterlimit="10"/>
<path d="M-175.352 1204.46C-70.8405 1143.96 -38.1127 1208.04 66.3989 1147.54C170.91 1087.05 138.183 1022.97 242.664 962.486C347.145 902.006 379.903 966.07 484.415 905.573C588.926 845.076 556.198 780.995 660.71 720.497C765.222 660 797.949 724.082 902.491 663.567C1007.03 603.053 974.275 538.989 1078.79 478.492" stroke="#73b21a" stroke-miterlimit="10"/>
<path d="M5.72144 1557.14C110.233 1496.64 142.931 1560.67 247.443 1500.17C351.954 1439.67 319.256 1375.65 423.737 1315.17C528.219 1254.69 560.947 1318.7 665.459 1258.2C769.97 1197.7 737.272 1133.68 841.783 1073.18C946.295 1012.68 978.993 1076.71 1083.53 1016.19C1188.08 955.679 1155.35 891.673 1259.86 831.176" stroke="#73b21a" stroke-miterlimit="10"/>
<path d="M-601.081 370.875C-496.57 310.378 -463.775 374.589 -359.264 314.092C-254.752 253.595 -287.546 189.383 -183.065 128.904C-78.5836 68.4241 -45.7591 132.618 58.7524 72.1213C163.264 11.6242 130.469 -52.5875 234.981 -113.085C339.493 -173.582 372.287 -109.37 476.829 -169.885C581.37 -230.399 548.546 -294.593 653.057 -355.091" stroke="#73b21a" stroke-miterlimit="10"/>
<path d="M-339.058 883.917C-234.547 823.42 -201.819 887.502 -97.3072 827.005C7.20432 766.507 -25.5235 702.426 78.9579 641.946C183.439 581.466 216.197 645.531 320.709 585.033C425.22 524.536 392.492 460.455 497.004 399.958C601.515 339.461 634.243 403.542 738.785 343.028C843.327 282.513 810.569 218.449 915.08 157.952" stroke="#73b21a" stroke-miterlimit="10"/>
<path d="M-470.103 627.331C-365.591 566.834 -332.797 631.046 -228.285 570.549C-123.774 510.051 -156.568 445.84 -52.0868 385.36C52.3947 324.88 85.2192 389.075 189.731 328.578C294.242 268.08 261.448 203.869 365.959 143.372C470.471 82.8745 503.265 147.086 607.807 86.5717C712.348 26.0572 679.524 -38.1372 784.035 -98.6343" stroke="#73b21a" stroke-miterlimit="10"/>
<path d="M-208.08 1140.37C-103.569 1079.88 -70.8407 1143.96 33.6708 1083.46C138.182 1022.96 105.454 958.883 209.936 898.403C314.417 837.924 347.175 901.988 451.687 841.49C556.198 780.993 523.47 716.912 627.982 656.415C732.493 595.918 765.221 659.999 869.763 599.485C974.305 538.97 941.547 474.906 1046.06 414.409" stroke="#73b21a" stroke-miterlimit="10"/>
<path d="M-28.0103 1492.95C76.5013 1432.46 109.296 1496.67 213.807 1436.17C318.319 1375.67 285.524 1311.46 390.006 1250.98C494.487 1190.5 527.312 1254.7 631.823 1194.2C736.335 1133.7 703.54 1069.49 808.052 1008.99C912.563 948.497 945.358 1012.71 1049.9 952.195C1154.44 891.68 1121.62 827.486 1226.13 766.989" stroke="#73b21a" stroke-miterlimit="10"/>
<path d="M-535.558 499.168C-431.047 438.671 -398.319 502.752 -293.807 442.255C-189.296 381.758 -222.024 317.676 -117.542 257.197C-13.0609 196.717 19.6971 260.781 124.209 200.284C228.72 139.787 195.992 75.7054 300.504 15.2083C405.015 -45.2889 437.743 18.7926 542.285 -41.7219C646.826 -102.236 614.068 -166.301 718.58 -226.798" stroke="#73b21a" stroke-miterlimit="10"/>
<path d="M-273.603 1012.08C-169.091 951.584 -136.363 1015.67 -31.8516 955.169C72.6599 894.672 39.932 830.59 144.413 770.11C248.895 709.631 281.653 773.695 386.164 713.198C490.676 652.701 457.948 588.619 562.46 528.122C666.971 467.625 699.699 531.706 804.241 471.192C908.782 410.677 876.024 346.613 980.536 286.116" stroke="#73b21a" stroke-miterlimit="10"/>
<path d="M-93.4663 1364.79C11.0452 1304.29 43.7731 1368.38 148.285 1307.88C252.796 1247.38 220.068 1183.3 324.55 1122.82C429.031 1062.34 461.789 1126.4 566.301 1065.91C670.812 1005.41 638.084 941.328 742.596 880.831C847.107 820.334 879.835 884.416 984.377 823.901C1088.92 763.387 1056.16 699.322 1160.67 638.825" stroke="#73b21a" stroke-miterlimit="10"/>
<path d="M-404.581 755.625C-300.069 695.128 -267.341 759.209 -162.83 698.712C-58.3181 638.215 -91.046 574.133 13.4355 513.654C117.917 453.174 150.675 517.238 255.186 456.741C359.698 396.244 326.97 332.162 431.481 271.665C535.993 211.168 568.721 275.25 673.263 214.735C777.804 154.22 745.046 90.1564 849.558 29.6593" stroke="#73b21a" stroke-miterlimit="10"/>
<path d="M-142.624 1268.54C-38.1127 1208.04 -5.31834 1272.25 99.1932 1211.76C203.705 1151.26 170.91 1087.05 275.392 1026.57C379.873 966.088 412.698 1030.28 517.209 969.785C621.721 909.288 588.926 845.076 693.438 784.579C797.949 724.082 830.744 788.294 935.285 727.779C1039.83 667.265 1007 603.07 1111.51 542.573" stroke="#73b21a" stroke-miterlimit="10"/>
<path d="M37.5122 1621.25C142.024 1560.75 174.722 1624.77 279.233 1564.28C383.745 1503.78 351.047 1439.75 455.528 1379.28C560.01 1318.8 592.738 1382.8 697.249 1322.3C801.761 1261.81 769.063 1197.78 873.574 1137.29C978.086 1076.79 1010.78 1140.81 1115.33 1080.3C1219.87 1019.78 1187.14 955.778 1291.65 895.281" stroke="#73b21a" stroke-miterlimit="10"/>
</g>
</svg>
